<svg width="57" height="56" viewBox="0 0 57 56" fill="none" xmlns="http://www.w3.org/2000/svg">
<path d="M50.4364 21.1818C50.4364 32.4737 41.3213 41.5888 30.0295 41.5888C18.7377 41.5888 9.62256 32.4737 9.62256 21.1818C9.62256 11.3865 16.4929 3.22373 25.744 1.25106H26.2882L26.6964 1.04699C27.0365 0.978972 27.3766 0.978972 27.7167 0.910949H28.3969L28.9411 0.774902H29.2132L30.0295 0.910949L30.5737 0.774902H30.8458L31.9341 1.04699L33.2266 0.978972C33.3626 0.978972 33.5667 1.04699 33.7027 1.04699L38.6004 4.17606L43.9062 6.21675C47.9196 9.95802 50.4364 15.2638 50.4364 21.1818Z" fill="#111010" fill-opacity="0.5"/>
<path d="M31.0498 7.23696C32.4103 7.6451 32.3423 6.82882 33.1585 7.78115C33.6347 8.32533 34.519 9.34568 35.5393 9.61777C35.6754 9.68579 36.0155 9.34568 36.0155 9.07359C36.0155 8.80149 35.2672 8.32533 34.8591 8.18929C34.451 8.05324 34.9952 7.30499 34.451 7.10092C33.9068 6.89685 33.2946 6.01255 33.0905 5.33231C32.8864 4.65208 31.9341 5.19627 31.594 5.06022C31.2539 4.92418 30.8457 4.9922 30.5056 5.53638C30.1655 6.08057 30.7097 7.10092 31.0498 7.23696" fill="#FBF8F8"/>
<path d="M38.1921 26.4194C38.1921 26.1473 35.5392 24.7188 35.2671 24.6508C34.723 24.6508 34.0427 24.3787 33.5666 24.6508C33.3625 24.7868 33.1584 24.9229 33.0904 25.1269C33.0224 25.263 32.4782 24.9909 32.2741 25.0589C31.798 25.331 31.5259 24.5147 31.6619 24.1746C32.002 23.4263 30.8456 23.9025 30.7096 23.6984C30.8456 23.9705 30.6416 21.5217 30.2334 22.8822C29.8933 23.9025 28.7369 22.7461 28.873 21.9979C29.077 20.8415 30.8456 20.6374 31.2538 20.8415C31.4578 20.9775 32.1381 21.9979 32.2741 21.9298C32.4782 21.8618 32.1381 20.7054 32.1381 20.5694C32.002 20.0252 33.0904 19.8211 33.1584 19.2089C33.2264 18.7328 33.5666 18.8688 33.9067 18.5967C34.3828 18.1886 34.0427 17.5083 34.6549 17.1002C34.859 16.9642 35.6753 16.8961 35.7433 16.624C35.8113 16.42 35.0631 15.8758 35.7433 15.6717C36.3555 15.5357 36.9677 15.8078 37.1038 14.9235C37.2398 14.1752 36.3555 13.9711 36.1514 13.3589C36.0834 13.1549 35.9474 12.1345 35.6073 12.3386C35.1311 12.6107 34.859 13.1549 34.5189 12.4746C33.8387 11.2502 32.2061 10.706 32.9544 12.6787C33.3625 13.699 31.866 16.7601 31.6619 13.9031C31.5939 12.9508 28.6689 12.6107 29.6212 11.5223C30.6416 10.4339 32.002 10.3659 32.3421 8.66533C32.8863 6.28452 31.2538 8.32522 30.3695 7.84905C29.1451 7.16882 30.1654 7.50894 29.5532 8.39324C29.2811 8.73335 28.5329 8.18917 28.1247 8.25719C27.7846 8.32522 26.9683 9.00545 26.6962 8.59731C26.2881 7.78103 23.3631 7.23685 22.5468 7.57696C20.9143 8.18917 20.3021 7.37289 18.6695 7.03278C18.1253 6.89673 15.2683 6.82871 15.4724 7.78103C15.5404 8.18917 15.8125 8.46126 15.9486 8.80138C16.1526 9.34556 15.3364 8.93742 15.1323 9.07347C15.0643 9.14149 16.0846 9.82172 16.1526 9.88975C16.4247 10.1618 15.1323 10.502 14.9963 10.9781C14.7242 11.9304 16.7649 11.6583 16.4247 12.7467C16.2887 13.0868 15.1323 13.631 14.9963 14.7874C14.9963 14.9915 16.4247 13.3589 17.3771 13.699C18.1933 13.9711 18.1253 11.7264 19.2137 11.7264C21.1864 11.7264 21.5265 13.631 22.5468 14.9235C23.023 15.5357 23.4311 15.7397 23.4991 16.556C23.5672 17.3043 23.4311 18.1886 23.7032 18.8688C23.9753 19.549 24.4515 19.549 24.7916 20.0932C25.1997 20.7054 25.4038 21.3176 25.948 21.8618C26.7643 22.6781 28.0567 23.8345 29.2811 23.6984C29.5532 23.6304 30.4375 24.1746 30.6416 24.3106C30.9817 24.5827 31.1177 24.9229 31.3898 25.263C31.5939 25.5351 32.2741 25.399 32.6142 25.5351C32.8863 25.6711 31.934 27.7118 32.2741 28.256C32.6823 28.8682 32.6823 29.4804 33.2945 29.9566C33.8387 30.3647 34.0427 30.4327 34.1108 31.181C34.2468 32.4054 33.8387 33.6978 33.5666 34.8542C33.4305 35.4664 33.7026 36.1467 33.4985 36.6909C33.2264 37.3711 33.0224 37.9833 33.2945 38.7996C33.7026 40.16 36.2195 40.3641 34.723 39.2077C34.1108 38.7315 35.4032 37.4391 34.9951 37.3711C34.3148 37.099 35.1311 36.8269 35.1991 36.4868C35.4032 35.8746 38.1241 33.4257 38.3282 33.0176C38.5323 32.6775 38.3962 32.3374 38.6683 31.9973C39.0084 31.6571 39.4166 31.7932 39.7567 31.5211C40.5049 31.0449 40.2328 30.2287 40.5049 29.5484C41.1171 28.188 41.3212 28.7321 40.5049 27.7118C40.2328 27.3717 38.2602 27.5077 38.1921 26.4194" fill="#FBF8F8"/>
<path d="M23.4989 6.28456C23.9751 6.82875 24.5193 6.01247 24.5873 6.28456C24.6553 6.55665 24.6553 7.10084 25.2675 7.10084C25.8797 7.10084 24.7233 7.50898 25.0634 7.71305C25.4716 7.84909 26.2879 8.39328 26.56 8.18921C26.832 7.98514 27.2402 7.78107 27.3762 7.98514C27.5123 8.12119 28.3286 7.98514 28.1245 7.71305C27.9204 7.44095 27.2402 6.76072 27.3082 6.42061C27.3082 6.01247 28.0565 5.06014 27.2402 5.19619C26.764 5.12817 26.628 5.60433 26.628 5.87642C26.628 6.14851 25.8797 5.46828 25.7437 5.46828C25.6076 5.46828 25.0634 4.65201 24.8594 4.65201C24.6553 4.65201 23.3629 4.24387 23.4989 4.65201C23.635 5.06014 23.0228 5.74038 23.4989 6.28456V6.28456ZM35.0628 10.2299C34.6547 10.0258 33.9065 9.00549 33.6344 9.3456C33.2942 9.68572 33.7024 10.434 33.9745 10.7741C34.2466 11.1142 35.403 11.7944 35.2669 11.5223C35.1309 11.2502 35.8111 10.638 35.0628 10.2299V10.2299ZM24.2472 3.22352C24.4512 3.22352 24.7914 3.90375 25.0634 3.97177C25.3355 4.0398 25.4716 4.37991 25.6076 4.44794C25.7437 4.51596 26.9681 4.0398 27.2402 3.97177C27.5803 3.83573 26.9001 3.1555 26.628 2.67934C26.4239 2.20317 26.628 3.49561 26.2198 3.29154C25.8117 3.08747 25.9477 2.81538 25.5396 2.81538C25.1315 2.81538 25.4036 1.93108 24.8594 2.13515C24.3152 2.33922 24.0431 3.22352 24.2472 3.22352ZM28.6687 4.85608C28.3286 4.9241 28.3966 5.19619 28.1925 5.40026C27.9884 5.60433 27.9884 5.87642 28.1925 6.14851C28.3966 6.42061 28.6687 6.82875 28.8727 6.42061C29.0768 6.01247 28.8727 5.67235 28.8727 5.40026C28.8727 5.12817 28.8727 4.78805 28.6687 4.85608ZM29.4169 6.14851C29.4849 6.35258 29.689 5.74038 30.0291 5.46828C30.3692 5.12817 29.8251 4.37991 29.553 4.78805C29.2809 4.99212 29.3489 5.94444 29.4169 6.14851ZM29.3489 6.42061C29.1448 6.6927 29.0088 7.37293 29.3489 7.44095C29.689 7.50898 29.8931 7.10084 29.757 6.82875C29.621 6.55665 29.4169 6.28456 29.3489 6.42061ZM30.7094 1.79503C30.3692 1.93108 31.1855 2.20317 30.6413 2.33922C30.0972 2.47527 30.0972 2.95143 29.621 2.54329C29.1448 2.13515 28.6006 2.67934 29.0088 2.8834C29.4169 3.08747 29.9611 3.69968 29.9611 3.97177C29.9611 4.31189 30.5053 4.44794 31.0495 4.37991C31.5937 4.31189 32.2739 4.51596 32.2739 4.24387C32.2739 3.97177 32.3419 3.90375 32.2739 3.69968C32.2059 3.42759 31.9338 3.1555 31.3896 3.42759C30.8454 3.63166 30.4373 3.56364 30.3692 3.29154C30.3012 3.01945 31.4576 2.47527 32.0018 2.8834C32.546 3.22352 33.0221 2.67934 32.614 2.40724C32.2059 2.13515 32.478 1.86306 32.7501 1.86306C32.9541 1.86306 33.0902 1.31887 33.2262 0.978757C32.4099 0.842711 31.5937 0.774688 30.7774 0.706665C30.8454 1.31887 31.0495 1.65899 30.7094 1.79503ZM25.8797 1.31887C26.2198 1.45492 26.832 1.31887 26.764 1.04678L25.7437 1.25085C25.7437 1.25085 25.8117 1.31887 25.8797 1.31887Z" fill="#FBF8F8"/>
<path d="M26.0841 1.59094C25.5399 1.31884 25.608 1.99907 25.812 2.20314C26.0161 2.40721 26.7644 1.93105 26.0841 1.59094V1.59094ZM29.2132 0.774658C29.6213 0.842681 29.8254 1.11477 29.8934 1.38687C30.0295 1.59094 30.5737 1.11477 30.5737 0.774658H29.2132V0.774658ZM28.1248 1.52291C27.9208 1.86303 28.1248 2.20314 28.3969 1.93105C28.669 1.59094 28.4649 0.774658 28.669 1.1828C28.8731 1.52291 29.2812 2.0671 29.5533 2.13512C29.8254 2.13512 29.6213 1.795 29.5533 1.52291C29.5533 1.25082 28.8731 0.978728 28.9411 0.842681C28.533 0.842681 28.1248 0.910704 27.7167 0.910704C27.9888 1.11477 28.3289 1.31884 28.1248 1.52291ZM29.3492 4.31186C29.6894 4.44791 29.3492 3.63163 29.3492 3.63163C29.0091 3.8357 29.0091 4.17581 29.3492 4.31186ZM28.1928 3.76768C28.2609 3.97174 28.601 4.03977 28.8051 3.76768C29.0091 3.49558 28.8051 2.40721 28.533 2.74733C28.2609 3.08744 27.9888 2.9514 27.4446 2.74733C26.9004 2.54326 28.1248 3.56361 28.1928 3.76768ZM31.7981 22.5421C32.2742 22.474 32.5463 23.0182 33.0225 23.0182C33.4987 23.0182 34.3149 23.7665 34.7231 23.2903C35.0632 22.9502 33.1585 22.6101 32.5463 22.27C31.8661 21.9298 31.3219 22.6101 31.7981 22.5421V22.5421ZM34.0428 1.86303C34.655 2.13512 34.587 2.13512 34.1789 2.47524C33.7707 2.81535 33.9068 3.42756 34.7911 3.35954C35.6754 3.29151 36.1516 2.47524 36.5597 3.63163C36.9678 4.85605 36.6957 6.14848 37.1719 6.4886C37.6481 6.82872 37.2399 7.10081 37.1719 7.44092C37.1039 7.78104 37.3079 8.05313 37.7161 7.91709C38.1242 7.78104 37.9882 8.52929 37.7161 8.80139C37.444 9.07348 37.1039 9.68569 37.9882 10.706C38.8725 11.7264 38.9405 11.5903 39.2126 11.9985C39.4847 12.3386 39.6888 11.8624 39.7568 11.4543C39.8248 11.0462 39.4847 9.61766 40.505 9.61766C41.4574 9.61766 41.7294 8.86941 41.8655 8.59732C42.0015 8.32522 42.7498 8.39325 43.1579 8.05313C43.498 7.71302 43.9062 7.44092 43.9742 6.21651C41.1853 3.63163 37.7161 1.86303 33.8388 1.11477C33.7027 1.38687 33.7027 1.72698 34.0428 1.86303" fill="#FBF8F8"/>
<g filter="url(#filter0_d_409_73)">
<path d="M48.8125 35.4964C46.9584 38.0535 44.4215 40.09 41.406 41.4424C38.3902 42.7948 34.9795 43.4256 31.4475 43.284C27.9154 43.1424 24.3604 42.2326 21.0676 40.6274C17.7749 39.022 14.836 36.766 12.487 34.0404C10.138 31.315 8.44415 28.1956 7.54137 24.9328C6.63864 21.6701 6.55212 18.3548 7.28879 15.2529C8.02545 12.151 9.56477 9.34885 11.7832 7.0714C14.0017 4.79395 16.8375 3.10456 20.0632 2.1388C15.868 3.07365 12.197 5.12733 9.46905 8.06558C6.74105 11.0038 5.06592 14.7083 4.63472 18.7564C4.20353 22.8045 5.03364 27.0333 7.03035 30.9602C9.02709 34.8874 12.11 38.3543 15.9275 40.9661C19.7449 43.5778 24.1431 45.229 28.6204 45.7311C33.0978 46.2333 37.4738 45.5664 41.2495 43.8063C45.0252 42.0462 48.0483 39.264 49.9742 35.777C51.8998 32.2899 52.6507 28.2385 52.1412 24.0849C52.3455 28.2649 51.1856 32.2411 48.8125 35.4964Z" fill="#FBF8F8"/>
</g>
<path d="M55.1383 17.7402L50.5098 16.6132L49.4967 13.7411C49.3438 13.3077 48.9045 13.0693 48.5131 13.2074C48.1217 13.3454 47.9292 13.8067 48.0821 14.2401L49.0952 17.1122L46.1981 20.8937C46.0804 21.041 46.0506 21.257 46.1187 21.4502C46.2477 21.8157 46.6557 21.9654 46.9366 21.7547L49.9259 19.4672L50.9372 22.3341L50.1202 23.4149C50.066 23.4869 50.0549 23.5906 50.0862 23.6794L50.1931 23.9822C50.2538 24.1546 50.4442 24.2283 50.5757 24.135L51.818 23.2681L52.0128 23.129L52.2086 23.1127L52.4269 23.1003L53.4112 23.035L53.7584 23.0123C53.9241 23.0009 54.0213 22.8256 53.9605 22.6533L53.8537 22.3504C53.8205 22.2564 53.7486 22.1879 53.6613 22.1658L52.3517 21.8351L51.3387 18.963L55.1016 18.8688C55.4543 18.8618 55.6782 18.4892 55.5492 18.1237C55.4811 17.9305 55.3223 17.781 55.1383 17.7402Z" fill="#FBF8F8"/>
<path d="M7.06654 51.7131V51.1609H9.96782V51.7131H8.84388V54.7972H8.19047V51.7131H7.06654ZM10.8271 54.7972V51.1609H12.1908C12.4701 51.1609 12.7045 51.2094 12.8939 51.3065C13.0845 51.4035 13.2283 51.5397 13.3253 51.7149C13.4236 51.8889 13.4727 52.0919 13.4727 52.3239C13.4727 52.5571 13.423 52.7595 13.3236 52.9311C13.2253 53.1016 13.0803 53.2336 12.8886 53.3271C12.6968 53.4194 12.4612 53.4656 12.1819 53.4656H11.2106V52.9187H12.0931C12.2565 52.9187 12.3902 52.8962 12.4944 52.8512C12.5985 52.8051 12.6755 52.7382 12.7252 52.6506C12.7761 52.5618 12.8016 52.4529 12.8016 52.3239C12.8016 52.1949 12.7761 52.0848 12.7252 51.9936C12.6743 51.9013 12.5968 51.8315 12.4926 51.7841C12.3884 51.7356 12.2541 51.7113 12.0896 51.7113H11.4859V54.7972H10.8271ZM12.7057 53.1495L13.6059 54.7972H12.8708L11.9866 53.1495H12.7057ZM14.846 54.7972H14.1429L15.4231 51.1609H16.2363L17.5183 54.7972H16.8152L15.8439 51.9066H15.8155L14.846 54.7972ZM14.8691 53.3715H16.7867V53.9006H14.8691V53.3715ZM18.3687 51.1609L19.3151 54.0231H19.3524L20.297 51.1609H21.0214L19.7394 54.7972H18.9262L17.646 51.1609H18.3687ZM21.8004 54.7972V51.1609H24.1654V51.7131H22.4591V52.7003H24.0429V53.2525H22.4591V54.245H24.1796V54.7972H21.8004ZM25.1375 54.7972V51.1609H25.7962V54.245H27.3978V54.7972H25.1375ZM30.2767 54.7972H29.5736L30.8538 51.1609H31.667L32.9489 54.7972H32.2458L31.2746 51.9066H31.2462L30.2767 54.7972ZM30.2998 53.3715H32.2174V53.9006H30.2998V53.3715ZM35.9931 52.3221C35.9635 52.2262 35.9227 52.1404 35.8706 52.0646C35.8197 51.9877 35.7581 51.922 35.6859 51.8676C35.6149 51.8131 35.5332 51.7723 35.4409 51.745C35.3486 51.7166 35.2479 51.7024 35.139 51.7024C34.9437 51.7024 34.7697 51.7515 34.617 51.8498C34.4643 51.948 34.3442 52.0925 34.2566 52.283C34.1702 52.4724 34.127 52.7033 34.127 52.9755C34.127 53.2501 34.1702 53.4827 34.2566 53.6733C34.343 53.8639 34.4631 54.0089 34.617 54.1083C34.7709 54.2066 34.9496 54.2557 35.1532 54.2557C35.3379 54.2557 35.4977 54.2202 35.6326 54.1492C35.7688 54.0781 35.8735 53.9775 35.9469 53.8473C36.0203 53.7159 36.057 53.562 36.057 53.3857L36.2062 53.4087H35.2189V52.8938H36.6944V53.3306C36.6944 53.6419 36.6281 53.9112 36.4956 54.1385C36.363 54.3658 36.1807 54.541 35.9487 54.6641C35.7167 54.786 35.4504 54.847 35.1497 54.847C34.8147 54.847 34.5205 54.7718 34.2672 54.6215C34.0151 54.4699 33.818 54.2551 33.676 53.9769C33.5351 53.6976 33.4647 53.3661 33.4647 52.9826C33.4647 52.689 33.5061 52.4269 33.589 52.196C33.673 51.9652 33.7902 51.7693 33.9405 51.6083C34.0909 51.4462 34.2672 51.323 34.4696 51.239C34.6721 51.1538 34.8922 51.1112 35.1302 51.1112C35.3314 51.1112 35.519 51.1408 35.693 51.1999C35.867 51.2579 36.0215 51.3408 36.1564 51.4485C36.2926 51.5562 36.4044 51.6841 36.492 51.832C36.5796 51.98 36.637 52.1434 36.6642 52.3221H35.9931ZM37.6314 54.7972V51.1609H39.9965V51.7131H38.2902V52.7003H39.874V53.2525H38.2902V54.245H40.0107V54.7972H37.6314ZM43.9568 51.1609V54.7972H43.3709L41.6574 52.3203H41.6273V54.7972H40.9685V51.1609H41.558L43.2697 53.6396H43.3016V51.1609H43.9568ZM48.0872 52.3878H47.4231C47.4042 52.2789 47.3692 52.1824 47.3183 52.0984C47.2674 52.0132 47.2041 51.9409 47.1283 51.8818C47.0526 51.8226 46.9662 51.7782 46.8691 51.7486C46.7732 51.7178 46.6697 51.7024 46.5584 51.7024C46.3607 51.7024 46.1855 51.7521 46.0328 51.8516C45.8801 51.9498 45.7606 52.0942 45.6742 52.2848C45.5877 52.4742 45.5445 52.7056 45.5445 52.9791C45.5445 53.2572 45.5877 53.4916 45.6742 53.6822C45.7618 53.8716 45.8813 54.0148 46.0328 54.1119C46.1855 54.2078 46.3601 54.2557 46.5566 54.2557C46.6655 54.2557 46.7673 54.2415 46.862 54.2131C46.9579 54.1835 47.0437 54.1403 47.1195 54.0835C47.1964 54.0266 47.2609 53.9568 47.313 53.8739C47.3663 53.7911 47.403 53.6964 47.4231 53.5899L48.0872 53.5934C48.0623 53.7662 48.0084 53.9284 47.9256 54.0799C47.8439 54.2314 47.7368 54.3652 47.6042 54.4812C47.4716 54.596 47.3166 54.686 47.139 54.7511C46.9614 54.815 46.7644 54.847 46.5477 54.847C46.2281 54.847 45.9429 54.773 45.6919 54.625C45.441 54.477 45.2433 54.2634 45.0989 53.984C44.9545 53.7047 44.8823 53.3697 44.8823 52.9791C44.8823 52.5873 44.9551 52.2523 45.1006 51.9741C45.2462 51.6947 45.4445 51.4811 45.6955 51.3331C45.9464 51.1851 46.2305 51.1112 46.5477 51.1112C46.7502 51.1112 46.9384 51.1396 47.1124 51.1964C47.2864 51.2532 47.4414 51.3367 47.5776 51.4467C47.7137 51.5556 47.8256 51.6894 47.9131 51.848C48.0019 52.0055 48.0599 52.1854 48.0872 52.3878ZM48.7418 51.1609H49.4858L50.3753 52.7695H50.4109L51.3004 51.1609H52.0444L50.7216 53.4407V54.7972H50.0646V53.4407L48.7418 51.1609Z" fill="#FBF8F8"/>
<defs>
<filter id="filter0_d_409_73" x="0.523926" y="2.13879" width="55.7725" height="51.7549" filterUnits="userSpaceOnUse" color-interpolation-filters="sRGB">
<feFlood flood-opacity="0" result="BackgroundImageFix"/>
<feColorMatrix in="SourceAlpha" type="matrix" values="0 0 0 0 0 0 0 0 0 0 0 0 0 0 0 0 0 0 127 0" result="hardAlpha"/>
<feOffset dy="4"/>
<feGaussianBlur stdDeviation="2"/>
<feComposite in2="hardAlpha" operator="out"/>
<feColorMatrix type="matrix" values="0 0 0 0 0 0 0 0 0 0 0 0 0 0 0 0 0 0 0.25 0"/>
<feBlend mode="normal" in2="BackgroundImageFix" result="effect1_dropShadow_409_73"/>
<feBlend mode="normal" in="SourceGraphic" in2="effect1_dropShadow_409_73" result="shape"/>
</filter>
</defs>
</svg>
